<?xml version="1.0" encoding="UTF-8"?>
<svg xmlns="http://www.w3.org/2000/svg" xmlns:xlink="http://www.w3.org/1999/xlink" width="2834.88" height="2834.88" viewBox="0 0 2834.88 2834.88">
<path fill-rule="evenodd" fill="rgb(100%, 0%, 0%)" fill-opacity="1" d="M 1417.320312 481.039062 C 1652.578125 481.039062 1868.160156 565.289062 2035.601562 705.210938 L 1421.71875 750.828125 L 2095.871094 760.019531 C 2272.640625 934.910156 2382.171875 1177.578125 2382.171875 1445.878906 C 2382.171875 1460.210938 2381.808594 1474.460938 2381.179688 1488.621094 L 1957.730469 1520.078125 L 2378.859375 1525.839844 C 2349.550781 1883.1875 2125.511719 2185.332031 1813.050781 2326.046875 L 1021.53125 2326.046875 C 851.574219 2249.503906 707.8125 2125.160156 607.285156 1970.183594 L 857.195312 1966.746094 L 592.765625 1947.128906 C 503.78125 1801.019531 452.476562 1629.441406 452.476562 1445.878906 C 452.476562 1380.71875 458.960938 1317.070312 471.296875 1255.519531 L 1085.511719 1247.109375 L 483.503906 1202.390625 C 591.40625 787.421875 968.574219 481.039062 1417.320312 481.039062 "/>
<path fill-rule="evenodd" fill="rgb(2.799988%, 1.800537%, 1.597595%)" fill-opacity="1" d="M 1366.960938 2182.433594 C 1383.628906 2182.023438 1400.429688 2181.816406 1417.320312 2181.816406 C 1722.730469 2181.816406 1993.25 2249.644531 2158.640625 2353.660156 L 676.011719 2353.660156 C 810.839844 2268.863281 1015.539062 2208.113281 1252.058594 2188.5625 L 1233.628906 2125.386719 C 1233.628906 2125.386719 1205.289062 2077.726562 1206.578125 2031.351562 C 1207.289062 2005.96875 1210.171875 1910.28125 1213.339844 1820.058594 C 1146.980469 1874.761719 1083.691406 1931.429688 1022.96875 1990.507812 C 1020.171875 1993.253906 1015.761719 1993.488281 1012.679688 1991.054688 C 1009.601562 1988.617188 1008.808594 1984.273438 1010.828125 1980.910156 C 1061.261719 1900.523438 1130.890625 1825.75 1215.761719 1754.148438 C 1217.601562 1706.621094 1219.371094 1667.210938 1220.71875 1650.308594 C 1223.621094 1614.039062 1204.550781 1564.898438 1243.660156 1490.980469 C 1241.371094 1478.660156 1188.210938 1380.949219 1184.011719 1352.269531 C 1179.539062 1321.648438 1200.710938 1289.441406 1208.738281 1256.648438 C 1217.789062 1219.679688 1226.238281 1185.75 1226.238281 1170.601562 C 1226.238281 1142.011719 1269.730469 1129.898438 1269.730469 1129.898438 C 1269.730469 1129.898438 1330.929688 1125.660156 1343.121094 1118.539062 C 1344.570312 1117.691406 1345.941406 1116.441406 1347.230469 1114.898438 C 1351.039062 1105.078125 1354.378906 1095.648438 1357.410156 1087.039062 C 1358.878906 1082.859375 1358.519531 1078.191406 1357.789062 1073.488281 C 1323.308594 1077.78125 1268.089844 1090 1222.300781 1124.75 C 1194.121094 1146.140625 1069.390625 1236.339844 1069.390625 1236.339844 L 1079.589844 1205.988281 L 1049.640625 1189.128906 C 1049.640625 1189.128906 1122.21875 1155.648438 1201.21875 1103.390625 C 1237.078125 1079.671875 1278.261719 1067.851562 1312.53125 1062.019531 C 1294.21875 1061.640625 1274.921875 1063.578125 1256.460938 1069.628906 C 1230.210938 1078.238281 1114.660156 1112.578125 1114.660156 1112.578125 L 1127.429688 1090.558594 L 1105.25 1066.589844 C 1105.25 1066.589844 1169.730469 1062.5 1242.210938 1044.820312 C 1268.851562 1038.320312 1297.210938 1039.5 1322.441406 1043.589844 L 1179.058594 997.441406 L 1477.28125 896.140625 L 1662.628906 1119.730469 L 1510.25 1085.609375 C 1510.25 1085.609375 1487.480469 1121.738281 1477.359375 1132.070312 C 1467.230469 1142.410156 1437.839844 1129.289062 1437.839844 1129.289062 L 1433.609375 1138.238281 L 1425.601562 1160.429688 C 1425.601562 1160.429688 1454.628906 1179.929688 1475.128906 1199.78125 C 1497.511719 1221.449219 1529.140625 1302.859375 1529.140625 1302.859375 L 1678.699219 1421.019531 L 1702.300781 1437.070312 C 1735.429688 1418.75 1766.210938 1401.71875 1800.25 1383.410156 C 1803.738281 1381.539062 1808.078125 1382.519531 1810.421875 1385.71875 C 1814.058594 1390.679688 1819.410156 1397.980469 1823.390625 1403.410156 C 1824.75 1405.261719 1825.238281 1407.601562 1824.738281 1409.828125 C 1824.25 1412.070312 1822.808594 1413.980469 1820.800781 1415.078125 C 1791.828125 1430.980469 1763.339844 1446.96875 1735.339844 1463.058594 C 1736.808594 1465.679688 1737.648438 1468.511719 1736.089844 1470.378906 C 1729.269531 1478.519531 1702.609375 1499.128906 1690.148438 1502.609375 C 1683.320312 1504.519531 1679.679688 1503.578125 1673.171875 1499.421875 C 1622.988281 1529.300781 1574.371094 1559.570312 1527.199219 1590.351562 C 1532.140625 1609.660156 1535.671875 1633.589844 1534.980469 1661.71875 C 1532.96875 1744.238281 1522.910156 1792.539062 1547.058594 1838.835938 C 1571.210938 1885.128906 1646.199219 1963.726562 1681.628906 1973.390625 C 1717.050781 1983.050781 1758.910156 1983.050781 1791.121094 2028.136719 L 1823.320312 2073.21875 C 1823.320312 2073.21875 1755.691406 2020.085938 1721.878906 2028.136719 C 1688.070312 2036.183594 1636.539062 2079.660156 1586.628906 2076.441406 C 1536.710938 2073.21875 1517.300781 2059.441406 1499.78125 2080.050781 C 1482.269531 2100.660156 1484.328125 2131.574219 1464.75 2137.757812 C 1445.171875 2143.941406 1369.460938 2142.492188 1369.460938 2142.492188 Z M 1638.660156 1472.308594 C 1629.070312 1463.398438 1621.289062 1455.398438 1621.289062 1455.398438 C 1621.289062 1455.398438 1543.789062 1515.351562 1520.199219 1541.53125 C 1558.441406 1518.398438 1597.980469 1495.359375 1638.660156 1472.308594 "/>
</svg>
